<svg xmlns="http://www.w3.org/2000/svg" version="1.1" xmlns:xlink="http://www.w3.org/1999/xlink" xmlns:svgjs="http://svgjs.dev/svgjs" width="1000" height="290" viewBox="0 0 1000 290"><g transform="matrix(1,0,0,1,-0.6060606060606233,-0.25614280759080543)"><svg viewBox="0 0 396 115" data-background-color="#ffffff" preserveAspectRatio="xMidYMid meet" height="290" width="1000" xmlns="http://www.w3.org/2000/svg" xmlns:xlink="http://www.w3.org/1999/xlink"><g id="tight-bounds" transform="matrix(1,0,0,1,0.2400000000000091,0.10157387197565981)"><svg viewBox="0 0 395.52 114.7968522560487" height="114.7968522560487" width="395.52"><g><svg viewBox="0 0 692.3263613170071 200.94277663095735" height="114.7968522560487" width="395.52"><g><rect width="8.399349497521719" height="200.94277663095735" x="266.4191859097427" y="0" fill="#ffffff" opacity="1" stroke-width="0" stroke="transparent" fill-opacity="1" class="rect-nn-0" data-fill-palette-color="primary" rx="1%" id="nn-0" data-palette-color="#ffffff"></rect></g><g transform="matrix(1,0,0,1,296.8063613170071,0.4998576533108263)"><svg viewBox="0 0 395.52 199.9430613243357" height="199.9430613243357" width="395.52"><g><svg viewBox="0 0 395.52 199.9430613243357" height="199.9430613243357" width="395.52"><g><svg viewBox="0 0 395.52 199.9430613243357" height="199.9430613243357" width="395.52"><g transform="matrix(1,0,0,1,0,0)"><svg width="395.52" viewBox="2.5900000000000025 -35.50000000000001 173.66 79.88000000000001" height="199.9430613243357" data-palette-color="#ffffff"><svg></svg><svg></svg><g class="undefined-text-0" data-fill-palette-color="primary" id="text-0"><path d="M40.43-20.85v6.69c0 1.627-0.217 3.16-0.65 4.6-0.427 1.44-1.037 2.747-1.83 3.92-0.787 1.173-1.737 2.2-2.85 3.08-1.12 0.873-2.363 1.563-3.73 2.07v0l7.42 5.89h-9.2l-6.1-4.91h-6.25c-2.1 0-4.047-0.363-5.84-1.09-1.787-0.72-3.333-1.733-4.64-3.04-1.3-1.3-2.32-2.847-3.06-4.64-0.74-1.787-1.11-3.747-1.11-5.88v0-6.69c0-2.113 0.37-4.07 1.11-5.87 0.74-1.8 1.76-3.347 3.06-4.64 1.307-1.293 2.853-2.307 4.64-3.04 1.793-0.733 3.74-1.1 5.84-1.1v0h8.59c2.1 0 4.04 0.367 5.82 1.1 1.787 0.733 3.33 1.747 4.63 3.04 1.3 1.293 2.317 2.84 3.05 4.64 0.733 1.8 1.1 3.757 1.1 5.87zM34.08-14.16v-6.69c0-1.253-0.2-2.39-0.6-3.41-0.393-1.013-0.953-1.883-1.68-2.61-0.727-0.72-1.597-1.28-2.61-1.68-1.02-0.4-2.14-0.6-3.36-0.6v0h-8.59c-1.24 0-2.37 0.2-3.39 0.6-1.013 0.4-1.887 0.96-2.62 1.68-0.733 0.727-1.3 1.597-1.7 2.61-0.393 1.02-0.59 2.157-0.59 3.41v0 6.69c0 1.253 0.197 2.39 0.59 3.41 0.4 1.013 0.967 1.883 1.7 2.61 0.733 0.72 1.607 1.28 2.62 1.68 1.02 0.4 2.15 0.6 3.39 0.6v0h8.54c1.24 0 2.367-0.2 3.38-0.6 1.02-0.4 1.897-0.96 2.63-1.68 0.733-0.727 1.297-1.597 1.69-2.61 0.4-1.02 0.6-2.157 0.6-3.41zM81.01-35.01v31.81c0 0.46-0.083 0.883-0.25 1.27-0.16 0.393-0.387 0.73-0.68 1.01-0.293 0.287-0.637 0.513-1.03 0.68-0.387 0.16-0.8 0.24-1.24 0.24v0h-14.31c-1.353 0-2.72-0.147-4.1-0.44-1.387-0.293-2.727-0.743-4.02-1.35-1.293-0.613-2.51-1.393-3.65-2.34-1.14-0.94-2.137-2.057-2.99-3.35-0.853-1.293-1.523-2.777-2.01-4.45-0.487-1.667-0.73-3.523-0.73-5.57v0-17.51h6.34v17.51c0 1.787 0.25 3.3 0.75 4.54 0.493 1.233 1.123 2.267 1.89 3.1 0.767 0.827 1.607 1.477 2.52 1.95 0.907 0.473 1.773 0.823 2.6 1.05 0.82 0.227 1.543 0.37 2.17 0.43 0.627 0.053 1.037 0.08 1.23 0.08v0h11.16v-28.66zM94.78-35.01v35.01h-6.35v-35.01zM133.54-6.35v6.35h-22.9c-0.58 0-1.21-0.07-1.89-0.21-0.673-0.14-1.34-0.353-2-0.64-0.66-0.293-1.29-0.673-1.89-1.14-0.6-0.467-1.133-1.027-1.6-1.68-0.467-0.66-0.837-1.427-1.11-2.3-0.28-0.873-0.42-1.853-0.42-2.94v0-17.19c0-0.587 0.07-1.217 0.21-1.89 0.14-0.673 0.357-1.34 0.65-2 0.293-0.66 0.677-1.29 1.15-1.89 0.467-0.607 1.03-1.14 1.69-1.6 0.66-0.467 1.42-0.837 2.28-1.11 0.867-0.28 1.843-0.42 2.93-0.42v0h22.9v6.35h-22.9c-0.827 0-1.46 0.22-1.9 0.66-0.44 0.44-0.66 1.09-0.66 1.95v0 17.14c0 0.813 0.223 1.443 0.67 1.89 0.447 0.447 1.077 0.67 1.89 0.67v0zM158.25-17.5l18 17.5h-9.01l-14.29-14.31h-4.46v-6.39h4.46l14.29-14.31h9.01zM145.95-35.01v35.01h-6.35v-35.01z" fill="#ffffff" fill-rule="nonzero" stroke="none" stroke-width="1" stroke-linecap="butt" stroke-linejoin="miter" stroke-miterlimit="10" stroke-dasharray="" stroke-dashoffset="0" font-family="none" font-weight="none" font-size="none" text-anchor="none" style="mix-blend-mode: normal" data-fill-palette-color="primary" opacity="1"></path><path transform="translate(0,43.89)" d="M38.67-27.29v4.05c0 1.447-0.18 2.74-0.54 3.88-0.353 1.14-0.837 2.143-1.45 3.01-0.607 0.873-1.31 1.62-2.11 2.24-0.8 0.62-1.633 1.127-2.5 1.52-0.873 0.4-1.753 0.69-2.64 0.87-0.887 0.18-1.72 0.27-2.5 0.27v0l13.26 11.45h-9.82l-13.23-11.45h-4.57v-6.35h14.36c0.8-0.067 1.527-0.233 2.18-0.5 0.66-0.267 1.23-0.627 1.71-1.08 0.48-0.46 0.85-1.01 1.11-1.65 0.26-0.647 0.39-1.383 0.39-2.21v0-4.01c0-0.353-0.043-0.623-0.13-0.81-0.087-0.187-0.2-0.327-0.34-0.42-0.14-0.087-0.287-0.14-0.44-0.16-0.153-0.013-0.297-0.02-0.43-0.02v0h-20.95v28.66h-6.34v-31.81c0-0.44 0.08-0.857 0.24-1.25 0.16-0.387 0.383-0.727 0.67-1.02 0.287-0.293 0.627-0.523 1.02-0.69 0.387-0.16 0.807-0.24 1.26-0.24v0h24.1c1.42 0 2.617 0.257 3.59 0.77 0.98 0.513 1.773 1.157 2.38 1.93 0.613 0.773 1.053 1.607 1.32 2.5 0.267 0.893 0.4 1.733 0.4 2.52zM73.83-20.7v6.39h-20.05v-6.39zM76.68-6.35v6.35h-22.9c-0.873 0-1.833-0.153-2.88-0.46-1.04-0.313-2.003-0.823-2.89-1.53-0.887-0.707-1.627-1.627-2.22-2.76-0.593-1.133-0.89-2.52-0.89-4.16v0-22.9c0-0.44 0.08-0.857 0.24-1.25 0.167-0.387 0.39-0.727 0.67-1.02 0.287-0.293 0.627-0.523 1.02-0.69 0.387-0.16 0.81-0.24 1.27-0.24v0h28.58v6.35h-25.43v19.75c0 0.827 0.217 1.46 0.65 1.9 0.44 0.44 1.083 0.66 1.93 0.66v0zM117.8-35.01v32.3c0 0.453-0.087 0.877-0.26 1.27-0.167 0.393-0.393 0.73-0.68 1.01-0.287 0.287-0.627 0.51-1.02 0.67-0.387 0.167-0.8 0.25-1.24 0.25v0c-0.393 0-0.787-0.073-1.18-0.22-0.4-0.147-0.757-0.383-1.07-0.71v0l-23.19-24.22v24.66h-6.35v-32.3c0-0.653 0.183-1.243 0.55-1.77 0.367-0.527 0.837-0.92 1.41-1.18v0c0.6-0.247 1.217-0.31 1.85-0.19 0.633 0.127 1.18 0.423 1.64 0.89v0l23.19 24.2v-24.66zM156.81-35.01v6.35h-13.99v28.66h-6.35v-28.66h-14.01v-6.35z" fill="#ffffff" fill-rule="nonzero" stroke="none" stroke-width="1" stroke-linecap="butt" stroke-linejoin="miter" stroke-miterlimit="10" stroke-dasharray="" stroke-dashoffset="0" font-family="none" font-weight="none" font-size="none" text-anchor="none" style="mix-blend-mode: normal" data-fill-palette-color="primary" opacity="1"></path></g></svg></g></svg></g></svg></g></svg></g><g transform="matrix(1,0,0,1,0,59.47152473351612)"><svg viewBox="0 0 244.43135999999996 81.99972716392512" height="81.99972716392512" width="244.43135999999996"><g><svg version="1.0" xmlns="http://www.w3.org/2000/svg" xmlns:xlink="http://www.w3.org/1999/xlink" x="0" y="0" viewBox="0 0 99.99958679774086 33.547" enable-background="new 0 0 99.999 33.547" xml:space="preserve" width="244.43135999999996" height="81.99972716392512" class="icon-icon-0" data-fill-palette-color="accent" id="icon-0"><path d="M99.212 10.535L79.778 8.898 75.278 0H40.965l-7.417 9.819L2.454 11.456 0 24.445h7.105c0.487-4.882 4.606-8.694 9.617-8.694 5.01 0 9.129 3.812 9.616 8.694h44.283c0.487-4.882 4.606-8.694 9.616-8.694 4.988 0 9.093 3.778 9.61 8.628l8.75-1.264C98.599 23.116 101.29 13.016 99.212 10.535zM55.768 10.765H35.21l6.722-8.898h13.836V10.765zM57.635 10.765V1.866h12.988l4.501 8.898H57.635z" fill="#ffffff" data-fill-palette-color="accent"></path><path d="M16.723 17.285c-4.491 0-8.132 3.64-8.132 8.131s3.641 8.131 8.132 8.131c4.49 0 8.131-3.64 8.131-8.131S21.213 17.285 16.723 17.285zM16.723 30.787c-2.966 0-5.37-2.404-5.37-5.37s2.404-5.37 5.37-5.37c2.965 0 5.369 2.404 5.369 5.37S19.688 30.787 16.723 30.787z" fill="#ffffff" data-fill-palette-color="accent"></path><path d="M80.238 17.285c-4.49 0-8.131 3.64-8.131 8.131s3.641 8.131 8.131 8.131c4.491 0 8.132-3.64 8.132-8.131S84.729 17.285 80.238 17.285zM80.238 30.787c-2.965 0-5.369-2.404-5.369-5.37s2.404-5.37 5.369-5.37c2.966 0 5.37 2.404 5.37 5.37S83.204 30.787 80.238 30.787z" fill="#ffffff" data-fill-palette-color="accent"></path></svg></g></svg></g></svg></g><defs></defs></svg><rect width="395.52" height="114.7968522560487" fill="none" stroke="none" visibility="hidden"></rect></g></svg></g></svg>